<svg width="128" height="128" viewBox="0 0 128 128" fill="none" xmlns="http://www.w3.org/2000/svg">
<circle cx="64" cy="64" r="56" fill="#0E69FE"/>
<path d="M94.163 52.9773C97.1864 52.9773 99.8125 53.5845 101.943 54.908H101.942C104.067 56.2089 105.573 58.0542 106.427 60.3992H106.428C107.289 62.7222 107.436 65.3483 106.961 68.2214C106.485 71.1026 105.476 73.6753 103.916 75.9099L103.913 75.9128C102.352 78.1364 100.347 79.8781 97.916 81.1248L97.913 81.1257C95.4681 82.3734 92.7058 82.9773 89.663 82.9773C86.6316 82.9773 83.9982 82.3777 81.8584 81.0701L81.8486 81.0642C79.7343 79.7509 78.2326 77.9039 77.3789 75.5662L77.3779 75.5632C76.5316 73.2328 76.3907 70.6048 76.8652 67.7332C77.341 64.854 78.3433 62.2872 79.8925 60.0632C81.4437 57.8252 83.4461 56.0811 85.8818 54.8445C88.3371 53.5865 91.1098 52.9773 94.163 52.9773ZM93.0039 62.7957C92.5416 62.7957 92.113 62.9369 91.6787 63.2771C91.219 63.6372 90.7697 64.1972 90.3662 65.033L90.3632 65.0388C89.9648 65.8546 89.6483 66.8844 89.4384 68.1541V68.156C89.2286 69.4151 89.206 70.4224 89.3222 71.2078C89.4505 71.9977 89.6885 72.4431 89.9199 72.6921C90.1156 72.8929 90.3713 73.0232 90.8222 73.0232C91.2838 73.0232 91.7025 72.882 92.121 72.5486L92.1298 72.5408L92.3017 72.3962C92.7013 72.0365 93.0902 71.5164 93.4433 70.7849L93.4492 70.7732C93.8585 69.9451 94.1787 68.9162 94.3876 67.6628C94.598 66.3892 94.6138 65.3871 94.4892 64.6218V64.6189C94.3606 63.8197 94.1199 63.3711 93.8867 63.1218C93.7054 62.9281 93.4613 62.7957 93.0039 62.7957Z" fill="white" stroke="#3B82F6" stroke-width="3"/>
<path d="M79.5751 47.0455L79.2851 48.7906L78.5341 53.3179H83.0595L82.7617 55.0699L81.6025 61.8882L81.3906 63.1363H76.9043L75.3144 72.7154L75.3173 72.7164C75.4753 72.7164 75.7198 72.6952 76.0693 72.6353C76.4519 72.559 76.7581 72.5003 76.9794 72.4634L78.6552 72.1841L78.7246 73.8814L78.998 80.4947L79.0468 81.6744L77.9111 81.9996C77.3854 82.1498 76.7046 82.3113 75.8828 82.4849L75.8818 82.4839C74.9889 82.6861 73.9832 82.813 72.875 82.8726L72.8642 82.8736C70.5361 82.9816 68.4998 82.7448 66.8388 82.064L66.8349 82.0621C65.1537 81.3673 63.8837 80.2286 63.1728 78.6255L63.1699 78.6177L63.166 78.6099C62.491 77.0398 62.4238 75.2077 62.7919 73.2213L64.4609 63.1363H61.0976L61.3955 61.3853L62.5546 54.567L62.7666 53.3179H66.0869L66.9169 48.3004L67.125 47.0455H79.5751Z" fill="white" stroke="#3B82F6" stroke-width="3"/>
<path d="M60.9799 72.7149L61.0053 72.6905M60.9799 72.7149L59.7094 72.4776M60.9799 72.7149L61.0053 72.6905M60.9799 72.7149L59.7094 72.4776M61.0053 72.6905L59.7094 72.4776M61.0053 72.6905L59.7094 72.4776M65.8422 44.5909L65.5532 46.336L61.2074 72.6124L61.2094 72.6133C61.4244 72.6133 61.586 72.6038 61.7016 72.5919C61.7656 72.5807 61.8154 72.5727 61.852 72.5645C61.8741 72.5596 61.8879 72.5556 61.8949 72.5538L63.7631 71.9317L63.8666 73.8985L64.2074 80.376L64.269 81.544L63.1508 81.8878C62.6586 82.0392 62.1059 82.1792 61.4975 82.3106C60.8149 82.4607 59.894 82.5643 58.7807 82.6339H58.7709L58.7621 82.6348C55.261 82.8099 52.3483 82.3089 50.5121 80.67C48.5659 78.9327 48.175 76.2113 48.684 73.1202V73.1192L53.184 45.8467L53.392 44.5909H65.8422Z" fill="white" stroke="#3B82F6" stroke-width="3"/>
<path d="M35.0986 52.9773C36.5638 52.9773 37.9062 53.2341 39.0654 53.821L39.0644 53.822C39.7768 54.1716 40.4108 54.6084 40.957 55.1345L41.0498 54.575L41.2558 53.3181H53.7441L53.4531 55.0652L49.0888 81.2468L48.8798 82.4998H36.498L36.7382 81.0554C36.097 81.4843 35.4036 81.8457 34.6611 82.1394L34.6533 82.1423C33.4379 82.615 32.1257 82.8406 30.7343 82.8406C28.5933 82.8405 26.6564 82.274 24.9834 81.1042C23.2562 79.8967 22.0823 78.104 21.3925 75.8689C20.6857 73.5782 20.6534 70.8169 21.1748 67.6648V67.6638C21.7205 64.3659 22.6922 61.581 24.1484 59.3777L24.1513 59.3728C25.575 57.2373 27.2569 55.5983 29.2207 54.5378L29.2246 54.5359C31.1303 53.5137 33.0939 52.9773 35.0986 52.9773ZM37.4502 63.2048C36.8983 63.2049 36.4278 63.3573 35.9931 63.6707L35.9892 63.6736C35.5439 63.9928 35.1067 64.4985 34.7119 65.2693L34.708 65.2761C34.3193 66.0258 34.013 66.9763 33.8164 68.156C33.6191 69.3399 33.6149 70.2685 33.7441 70.9773L33.7968 71.2253C33.9298 71.7644 34.1316 72.087 34.3349 72.2859C34.5409 72.4685 34.8522 72.614 35.4052 72.614C35.9548 72.614 36.4328 72.461 36.8818 72.1443C37.3652 71.7918 37.8196 71.2696 38.2197 70.5173C38.6178 69.7576 38.9212 68.817 39.1054 67.6707L39.1074 67.6628C39.3046 66.4797 39.3019 65.5636 39.166 64.8757V64.8728C39.0281 64.1662 38.7844 63.7857 38.5459 63.572L38.5341 63.5613L38.5224 63.5496C38.3154 63.3558 38.0062 63.2048 37.4502 63.2048Z" fill="white" stroke="#3B82F6" stroke-width="3"/>
</svg>
