<svg width="128" height="128" viewBox="0 0 128 128" fill="none" xmlns="http://www.w3.org/2000/svg">
<g clip-path="url(#clip0_30_141)">
<rect width="128" height="128" fill="white"/>
<path d="M115.534 92.31C112.22 92.31 109.56 91.1433 107.554 88.81C105.547 86.43 104.544 83.2567 104.544 79.29C104.544 78.03 104.707 76.7467 105.034 75.44C105.407 74.1333 105.85 72.92 106.364 71.8C106.084 71.38 105.85 70.8433 105.664 70.19C105.524 69.49 105.454 68.6733 105.454 67.74C105.454 64.7067 105.99 61.93 107.064 59.41C108.137 56.8433 109.584 54.6267 111.404 52.76C113.224 50.8933 115.23 49.4467 117.424 48.42C119.617 47.3933 121.834 46.88 124.074 46.88C127.9 46.88 131.027 48.1633 133.454 50.73C135.927 53.2967 137.164 57.2867 137.164 62.7C137.164 65.4067 136.744 68.16 135.904 70.96C135.064 73.76 133.92 76.4433 132.474 79.01C131.074 81.53 129.44 83.7933 127.574 85.8C125.754 87.8067 123.794 89.3933 121.694 90.56C119.64 91.7267 117.587 92.31 115.534 92.31ZM114.414 68.65C114.647 69.1633 114.764 69.77 114.764 70.47C114.764 71.17 114.624 71.8933 114.344 72.64C114.064 73.3867 113.784 74.39 113.504 75.65C113.224 76.8633 113.084 78.6133 113.084 80.9C113.084 81.5067 113.154 82.02 113.294 82.44C113.48 82.8133 113.877 83 114.484 83C116.07 83 117.564 82.4867 118.964 81.46C120.41 80.4333 121.694 79.08 122.814 77.4C123.98 75.72 124.96 73.8533 125.754 71.8C126.594 69.7 127.224 67.5767 127.644 65.43C128.11 63.2367 128.344 61.2067 128.344 59.34C128.344 58.1267 128.11 57.2867 127.644 56.82C127.177 56.3533 126.36 56.12 125.194 56.12C123.607 56.12 121.974 56.6333 120.294 57.66C118.66 58.64 117.284 59.9933 116.164 61.72C115.044 63.4 114.484 65.3133 114.484 67.46C114.484 67.88 114.46 68.2767 114.414 68.65Z" fill="#3B82F6"/>
<path d="M121.436 54.72C121.436 55.28 121.249 55.77 120.876 56.19C120.502 56.61 120.036 56.9367 119.476 57.17C118.682 57.4967 117.306 57.9167 115.346 58.43C113.386 58.9433 111.006 59.5267 108.206 60.18C105.452 60.8333 102.489 61.51 99.3157 62.21C96.1423 62.8633 92.969 63.4933 89.7957 64.1C88.5823 68.58 87.3457 73.2 86.0857 77.96C84.8257 82.6733 83.5657 87.3167 82.3057 91.89C81.839 93.5233 81.279 94.76 80.6257 95.6C79.9723 96.4867 78.8523 96.93 77.2657 96.93C75.539 96.93 74.3723 96.37 73.7657 95.25C73.2057 94.1767 73.1357 92.7067 73.5557 90.84C74.769 85.7533 75.889 81.0167 76.9157 76.63C77.989 72.2433 78.8523 68.6967 79.5057 65.99C76.7057 66.4567 74.2557 66.83 72.1557 67.11C70.0557 67.3433 68.5623 67.4367 67.6757 67.39C66.6957 67.2967 65.879 66.9 65.2257 66.2C64.5723 65.5 64.269 64.6367 64.3157 63.61C64.409 62.6767 64.829 61.8833 65.5757 61.23C66.3223 60.53 67.209 60.11 68.2357 59.97C69.6823 59.83 71.549 59.62 73.8357 59.34C76.1223 59.06 78.6423 58.7333 81.3957 58.36C82.0023 55.98 82.7023 53.53 83.4957 51.01C84.289 48.4433 85.1057 45.9933 85.9457 43.66C86.8323 41.28 87.6723 39.2033 88.4657 37.43C89.259 35.6567 89.9823 34.3733 90.6357 33.58C91.149 32.9733 91.779 32.5067 92.5257 32.18C93.319 31.8533 94.089 31.69 94.8357 31.69C95.8157 31.69 96.609 32.04 97.2157 32.74C97.8223 33.44 98.1257 34.2567 98.1257 35.19C98.1257 35.5633 98.1023 35.96 98.0557 36.38C98.009 36.7533 97.9157 37.1267 97.7757 37.5C96.889 39.8333 95.9323 42.6567 94.9057 45.97C93.9257 49.2833 92.899 52.9233 91.8257 56.89C95.3257 56.3767 98.7557 55.8633 102.116 55.35C105.522 54.79 108.602 54.2767 111.356 53.81C114.156 53.2967 116.396 52.8533 118.076 52.48C119.009 52.1533 119.802 52.2233 120.456 52.69C121.109 53.11 121.436 53.7867 121.436 54.72Z" fill="#3B82F6"/>
<path d="M54.8017 93.5C50.6017 93.5 47.2883 92.2167 44.8617 89.65C42.4817 87.0367 41.2917 83.3267 41.2917 78.52C41.2917 75.9067 41.6417 72.85 42.3417 69.35C43.0417 65.8033 43.9517 62.07 45.0717 58.15C46.2383 54.1833 47.475 50.2633 48.7817 46.39C50.135 42.5167 51.465 38.9233 52.7717 35.61C54.0783 32.2967 55.2217 29.52 56.2017 27.28C57.0417 25.5533 58.2317 24.69 59.7717 24.69C60.7517 24.69 61.545 24.9933 62.1517 25.6C62.805 26.2067 63.1317 27.1867 63.1317 28.54C63.1317 29.1933 62.805 30.6167 62.1517 32.81C61.4983 35.0033 60.635 37.71 59.5617 40.93C58.535 44.1033 57.415 47.5333 56.2017 51.22C55.035 54.9067 53.915 58.6167 52.8417 62.35C51.815 66.0833 50.975 69.6067 50.3217 72.92C49.6683 76.1867 49.3417 78.9633 49.3417 81.25C49.3417 82.1833 49.5983 82.93 50.1117 83.49C50.6717 84.05 51.395 84.33 52.2817 84.33C54.195 84.33 56.155 83.98 58.1617 83.28C60.215 82.58 62.2217 81.6933 64.1817 80.62C66.1883 79.5467 68.0783 78.4033 69.8517 77.19C71.625 75.9767 73.2117 74.8333 74.6117 73.76C76.0583 72.64 77.225 71.7533 78.1117 71.1C79.2783 70.2133 80.0717 69.77 80.4917 69.77C82.0784 69.77 82.8717 70.54 82.8717 72.08C82.8717 72.4533 82.405 73.2233 81.4717 74.39C80.6783 75.4167 79.5583 76.7233 78.1117 78.31C76.665 79.8967 74.985 81.5767 73.0717 83.35C71.205 85.0767 69.1983 86.71 67.0517 88.25C64.9517 89.79 62.8517 91.05 60.7517 92.03C58.6517 93.01 56.6683 93.5 54.8017 93.5Z" fill="#3B82F6"/>
<path d="M-2.53762 92.66C-4.03095 92.66 -5.38428 92.24 -6.59762 91.4C-7.81095 90.6067 -8.76762 89.5567 -9.46762 88.25C-10.1676 86.8967 -10.5176 85.45 -10.5176 83.91C-10.5176 81.0167 -9.88762 78.1933 -8.62762 75.44C-7.32095 72.6867 -5.61762 70.0733 -3.51762 67.6C-1.41762 65.1267 0.869049 62.8633 3.34238 60.81C5.86238 58.71 8.35905 56.9133 10.8324 55.42C13.3524 53.9267 15.6391 52.76 17.6924 51.92C19.7924 51.08 21.4257 50.66 22.5924 50.66C23.9457 50.66 25.0424 50.9633 25.8824 51.57C26.7691 52.13 27.2124 53.0167 27.2124 54.23C27.2124 54.6033 27.1191 54.9067 26.9324 55.14C27.5391 55.28 28.0291 55.63 28.4024 56.19C28.7757 56.75 28.9624 57.59 28.9624 58.71C28.9624 59.1767 28.8457 60.39 28.6124 62.35C28.3791 64.31 28.1224 66.69 27.8424 69.49C27.6091 72.29 27.4924 75.2067 27.4924 78.24C27.4924 78.7067 27.5624 79.1267 27.7024 79.5C27.8424 79.8267 28.1457 79.99 28.6124 79.99C30.4791 79.99 32.3691 79.6167 34.2824 78.87C36.2424 78.0767 38.1324 77.12 39.9524 76C41.8191 74.8333 43.4991 73.69 44.9924 72.57C46.5324 71.4033 47.8157 70.4467 48.8424 69.7C49.9157 68.9067 50.6157 68.51 50.9424 68.51C52.5291 68.51 53.3224 69.3033 53.3224 70.89C53.3224 71.31 52.8091 72.1967 51.7824 73.55C50.8024 74.8567 49.4491 76.3733 47.7224 78.1C45.9957 79.78 44.0591 81.46 41.9124 83.14C39.8124 84.7733 37.6191 86.1267 35.3324 87.2C33.0924 88.2733 30.9224 88.81 28.8224 88.81C26.2557 88.81 24.2957 88.2033 22.9424 86.99C21.6357 85.7767 20.7024 84.1433 20.1424 82.09C19.6291 79.99 19.349 77.6333 19.3024 75.02C16.9224 78.4267 14.449 81.46 11.8824 84.12C9.36238 86.7333 6.86572 88.81 4.39238 90.35C1.91905 91.89 -0.39095 92.66 -2.53762 92.66ZM22.2424 57.59C17.6691 59.7833 13.5624 62.3033 9.92238 65.15C6.28238 67.95 3.38905 70.89 1.24238 73.97C-0.857617 77.05 -1.90762 80.0133 -1.90762 82.86C-1.90762 83.6533 -1.53428 84.05 -0.787617 84.05C0.0990503 84.05 1.26572 83.5367 2.71238 82.51C4.20572 81.4833 5.81572 80.13 7.54238 78.45C9.26905 76.7233 10.9957 74.81 12.7224 72.71C14.449 70.5633 16.059 68.37 17.5524 66.13C19.0457 63.89 20.2357 61.7433 21.1224 59.69C21.4491 58.9433 21.8224 58.2433 22.2424 57.59Z" fill="#3B82F6"/>
<g style="mix-blend-mode:hard-light">
<circle cx="64" cy="64" r="54" fill="#F6413B"/>
</g>
</g>
<defs>
<clipPath id="clip0_30_141">
<rect width="128" height="128" fill="white"/>
</clipPath>
</defs>
</svg>
